<?xml version="1.0" standalone="no"?>
<!DOCTYPE svg PUBLIC "-//W3C//DTD SVG 1.1//EN" "http://www.w3.org/Graphics/SVG/1.1/DTD/svg11.dtd">
<svg width="104.94071753852224mm" height="110.93214932428864mm"
 viewBox="0 0 104.94071753852224 110.93214932428864"
 xmlns="http://www.w3.org/2000/svg" version="1.1"
 xmlns:xlink="http://www.w3.org/1999/xlink">
  <path id="face0-cut"
 style="fill:none;stroke:#0000FF;stroke-width:1;stroke-miterlimit:4;stroke-dasharray:none;stroke-linejoin:round;stroke-linecap:round"
        d="M 83.06972757840349,67.15862908349911 L 82.68779898289789,66.9565189555414 L 81.3671168240981,66.15803399427352 L 80.15692534073725,65.20031995994809 L 79.07630997544132,64.09848057499704 L 78.14231267804931,62.86989250472797 L 77.36966314388407,61.533931316931984 L 76.77054651765782,60.11166591760515 L 76.3544112264611,58.62552628171503 L 76.12781997242323,57.098949719096396 L 76.09434623497944,55.55601125407435 L 76.10170105604843,55.4855280707533 L 76.25451791496549,54.02104394794908 L 76.60580900930606,52.51825515208319 L 77.14267944759226,51.07134474351002 L 77.85666246230147,49.703131363715116 L 78.73649811477894,48.43519255502894 L 79.76831087119677,47.287524469894365 L 80.93582842801119,46.27822651959767 L 82.22063833591005,45.423215935740394 L 83.60247837513754,44.735976745988545 L 85.64780256064421,43.77352024078956 L 87.55637096807786,42.56230589874907 L 89.29808433352973,41.12143529358542 L 90.84547479677755,39.47363181547643 L 92.1741390858496,37.64488230962196 L 93.26312337120169,35.66402724817132 L 94.0952537201261,33.562305898749074 L 94.65740693992973,31.37286366254306 L 94.94071753852222,29.130229351527653 L 94.94071753852224,26.86977064847238 L 94.65740693992973,24.627136337456975 L 94.09525372012611,22.43769410125096 L 93.2631233712017,20.335972751828713 L 92.1741390858496,18.355117690378076 L 90.84547479677755,16.52636818452361 L 89.29808433352974,14.878564706414608 L 87.55637096807786,13.437694101250965 L 85.64780256064421,12.22647975921047 L 83.60247837513754,11.264023254011484 L 81.45265439578073,10.56550309968464 L 79.23223463097081,10.141935376339418 L 76.97623642681333,10.0 L 74.72023822265588,10.141935376339404 L 72.49981845784596,10.56550309968464 L 70.34999447848914,11.264023254011484 L 68.30467029298246,12.22647975921047 L 66.39610188554883,13.437694101250955 L 64.65438852009696,14.878564706414586 L 63.106998056849136,16.526368184523587 L 61.77833376777706,18.355117690378076 L 60.68934948242498,20.33597275182871 L 59.85721913350057,22.437694101250955 L 59.295065913696945,24.62713633745697 L 59.01175531510445,26.869770648472365 L 59.01175531510445,29.130229351527646 L 58.940176336024415,30.672641532290392 L 58.67584627247005,32.1939201074083 L 58.22293376744676,33.67007360498399 L 57.58858152171557,35.07782220254934 L 56.782793649135314,36.39496486377251 L 55.81827790581094,37.60072946206307 L 54.71024528118844,38.6761003694172 L 53.47617011166474,39.604118344230415 L 52.135514499863945,40.37014798866889 L 50.70942138565306,40.96210855763586 L 49.22038110934989,41.37066447933864 L 47.6918767256213,41.58937258283249 L 46.14801366168292,41.614783710675454 L 44.61313956031218,41.44649711420152 L 43.111460302977015,41.087166773566665 L 41.666658268625355,40.54245954289621 L 40.35298885574313,39.84816834225162 L 40.301518848421765,39.82096578061018 L 38.78308650773226,38.54943217182585 L 38.22304846922962,38.19402122523331 L 36.85857330899297,37.3280989575275 L 34.79616183064249,36.3576017826536 L 32.628377533719274,35.653245967398846 L 30.389407671557365,35.22613962373157 L 28.114562136378865,35.083018473832354 L 25.839716601200365,35.22613962373153 L 23.600746739038456,35.653245967398846 L 21.43296244211524,36.35760178265355 L 19.370550963764742,37.32809895752747 L 17.44603776502545,38.54943217182584 L 15.689773568689958,40.00234027117007 L 14.129455710275835,41.66391002690835 L 12.789691334498983,43.50793749141894 L 11.691609325901865,45.50534125001794 L 10.852527093722458,47.624621052241 L 10.285677466005595,49.83235458961082 L 10.0,52.0937245854069 L 10.0,54.373067883918566 L 10.285677466005609,56.63443787971464 L 10.852527093722443,58.84217141708439 L 11.69160932590188,60.96145121930759 L 12.789691334498968,62.95885497790669 L 14.129455710275849,64.80288244241697 L 15.689773568689958,66.4644521981553 L 17.446037765025437,67.91736029749934 L 19.370550963764714,69.13869351179784 L 21.432962442115198,70.10919068667201 L 23.600746739038414,70.81354650192665 L 25.839716601200323,71.24065284559384 L 28.114562136378822,71.38377399549321 L 30.389407671557336,71.24065284559393 L 32.628377533719146,70.81354650192672 L 34.796161830642355,70.10919068667182 L 36.544119677326556,69.27812985396017 L 37.795884034383555,68.36866981351677 L 39.11247007557188,67.64487051236202 L 39.151763423267546,67.62326881166558 L 40.59037481605273,67.05368226748655 L 42.089030451690085,66.66889290103585 L 43.62409563555214,66.4749690704844 L 45.17136147268592,66.47496907048439 L 46.70642665654799,66.66889290103592 L 48.20508229218535,67.0536822674874 L 49.64369368497052,67.6232688116659 L 50.999573073854506,68.36866981351683 L 52.251337430911505,69.27812985396017 L 53.37924568446296,70.33730620487243 L 54.365510047570616,71.52949502247853 L 55.19457654206249,72.83589477694585 L 55.85337029406014,74.23590276374095 L 56.33150173255026,75.7074400205879 L 56.621430439125966,77.22729952589248 L 56.718584064889555,78.7715121873359 L 56.621430439125966,80.31572484877934 L 56.43368033286371,81.801919972761 L 56.43368033286371,83.99787442955628 L 56.43368033286371,84.06237867581626 L 56.71699093145621,86.30501298683168 L 57.27914415125985,88.4944552230377 L 58.11127450018425,90.59617657245994 L 59.20025878553634,92.5770316339106 L 60.5289230746084,94.40578113976505 L 62.07631353785621,96.05358461787407 L 63.81802690330808,97.49445522303769 L 65.72659531074173,98.70566956507818 L 67.7719194962484,99.66812607027717 L 69.92174347560521,100.36664622460401 L 72.14216324041513,100.79021394794924 L 74.39816144457261,100.93214932428864 L 76.65415964873007,100.79021394794924 L 78.87457941353999,100.36664622460401 L 81.02440339289682,99.66812607027717 L 83.06972757840349,98.70566956507818 L 84.97829598583712,97.49445522303772 L 86.720009351289,96.05358461787407 L 88.26739981453682,94.40578113976505 L 89.59606410360888,92.5770316339106 L 90.68504838896096,90.59617657245994 L 91.51717873788537,88.4944552230377 L 92.079331957689,86.30501298683168 L 92.3626425562815,84.06237867581629 L 92.36264255628149,81.801919972761 L 92.07933195768899,79.5592856617456 L 91.51717873788537,77.36984342553959 L 90.68504838896096,75.26812207611735 L 89.59606410360888,73.28726701466671 L 88.26739981453682,71.45851750881224 L 86.72000935128901,69.81071403070324 L 84.97829598583712,68.36984342553959 L 83.06972757840349,67.15862908349911 M 65.11055426405044,77.03805457951968 L 65.92251577403891,75.92048543705305 L 66.86814327935703,74.91349442265312 L 67.93252366935539,74.03296238616421 L 69.09887102945373,73.29277584380614 L 70.34879136504115,72.70460797951787 L 71.6625726857592,72.2777345518737 L 73.01949587536527,72.01888760982939 L 74.39816144457261,71.93214932428864 L 75.77682701377995,72.01888760982939 L 77.13375020338601,72.27773455187369 L 78.44753152410406,72.70460797951787 L 79.69745185969148,73.29277584380615 L 80.86379921978981,74.03296238616423 L 81.92817960978817,74.91349442265312 L 82.87380711510629,75.92048543705306 L 83.68576862509477,77.0380545795197 L 84.35125902169882,78.24857711707284 L 84.8597831238193,79.53296238616423 L 85.20332120258819,80.87095486384567 L 85.37645545728358,82.24145360946619 L 85.3764554572836,83.6228450391111 L 85.20332120258819,84.99334378473162 L 84.8597831238193,86.33133626241306 L 84.35125902169882,87.61572153150445 L 83.68576862509477,88.8262440690576 L 82.87380711510629,89.94381321152423 L 81.92817960978817,90.95080422592417 L 80.8637992197898,91.83133626241307 L 79.69745185969148,92.57152280477115 L 78.44753152410406,93.15969066905942 L 77.133750203386,93.5865640967036 L 75.77682701377995,93.8454110387479 L 74.39816144457261,93.93214932428864 L 73.01949587536527,93.8454110387479 L 71.6625726857592,93.5865640967036 L 70.34879136504114,93.15969066905942 L 69.09887102945373,92.57152280477115 L 67.9325236693554,91.83133626241306 L 66.86814327935704,90.95080422592417 L 65.92251577403891,89.94381321152423 L 65.11055426405044,88.82624406905761 L 64.4450638674464,87.61572153150445 L 63.93653976532591,86.33133626241306 L 63.59300168655703,84.99334378473162 L 63.41986743186162,83.6228450391111 L 63.41986743186162,82.24145360946619 L 63.59300168655703,80.87095486384567 L 63.93653976532591,79.53296238616423 L 64.4450638674464,78.24857711707284 L 65.11055426405044,77.03805457951968 M 51.35400766538791,61.73351240688605 L 50.542046155399426,60.61594326441943 L 49.87655575879537,59.40542072686627 L 49.36803165667489,58.121035457774916 L 49.024493577906014,56.78304298009345 L 48.8513593232106,55.412544234472904 L 48.8513593232106,54.03115280482802 L 49.024493577906014,52.66065405920748 L 49.3680316566749,51.32266158152605 L 49.876555758795384,50.03827631243466 L 50.54204615539941,48.827753774881515 L 51.35400766538791,47.71018463241487 L 52.29963517070601,46.703193618014936 L 53.364015560704374,45.822661581526056 L 54.53036292080271,45.08247503916797 L 55.78028325639013,44.4943071748797 L 57.094064577108185,44.06743374723552 L 58.45098776671424,43.80858680519121 L 59.829653335921584,43.72184851965046 L 61.20831890512893,43.80858680519121 L 62.56524209473499,44.06743374723552 L 63.87902341545305,44.494307174879694 L 65.12894375104047,45.08247503916796 L 66.2952911111388,45.82266158152604 L 67.35967150113716,46.70319361801495 L 68.30529900645527,47.71018463241488 L 69.11726051644375,48.82775377488151 L 69.7827509130478,50.038276312434675 L 70.29127501516828,51.32266158152604 L 70.63481309393717,52.6606540592075 L 70.80794734863258,54.03115280482802 L 70.80794734863258,55.41254423447291 L 70.63481309393717,56.78304298009344 L 70.29127501516828,58.12103545777488 L 69.78275091304779,59.40542072686627 L 69.11726051644375,60.61594326441942 L 68.30529900645527,61.73351240688605 L 67.35967150113716,62.74050342128599 L 66.29529111113878,63.621035457774894 L 65.12894375104045,64.36122200013298 L 63.879023415453034,64.94938986442125 L 62.56524209473499,65.37626329206537 L 61.20831890512893,65.6351102341097 L 59.829653335921584,65.72184851965048 L 58.450987766714235,65.63511023410977 L 57.094064577108185,65.3762632920654 L 55.78028325639013,64.94938986442122 L 54.530362920802716,64.36122200013298 L 53.36401556070438,63.62103545777489 L 52.29963517070601,62.740503421285965 L 51.35400766538791,61.73351240688605 M 18.475188655896332,47.93410581954388 L 19.21537519825442,46.767758459445545 L 20.095907234743308,45.703378069447176 L 21.10289824914325,44.75775056412906 L 22.220467391609873,43.94578905414056 L 23.430989929163033,43.28029865753653 L 24.715375198254407,42.771774555416066 L 26.05336767593589,42.42823647664714 L 27.423866421556397,42.25510222195174 L 28.805257851201276,42.255102221951766 L 30.1757565968218,42.42823647664717 L 31.51374907450326,42.77177455541608 L 32.798134343594626,43.280298657536555 L 34.00865688114779,43.94578905414059 L 35.12622602361442,44.75775056412907 L 36.13321703801436,45.70337806944718 L 37.013749074503245,46.767758459445545 L 37.75393561686133,47.93410581954388 L 38.342103481149586,49.18402615513132 L 38.76897690879378,50.49780747584934 L 39.02782385083809,51.85473066545542 L 39.11456213637884,53.23339623466276 L 39.02782385083809,54.612061803870105 L 38.76897690879377,55.968984993476155 L 38.34210348114959,57.28276631419422 L 37.75393561686133,58.53268664978163 L 37.013749074503245,59.69903400987997 L 36.13321703801435,60.76341439987838 L 35.12622602361442,61.70904190519641 L 34.00865688114778,62.52100341518496 L 32.798134343594626,63.186493811788885 L 31.51374907450326,63.69501791390945 L 30.1757565968218,64.03855599267817 L 28.805257851201276,64.21169024737381 L 27.423866421556383,64.21169024737361 L 26.053367675935846,64.03855599267833 L 24.715375198254407,63.695017913909496 L 23.43098992916302,63.18649381178898 L 22.220467391609873,62.52100341518491 L 21.102898249143237,61.709041905196614 L 20.095907234743294,60.76341439987829 L 19.215375198254407,59.69903400988001 L 18.475188655896346,58.53268664978163 L 17.88702079160805,57.282766314194276 L 17.460147363963898,55.96898499347613 L 17.20130042191957,54.61206180387009 L 17.114562136378836,53.233396234662756 L 17.20130042191957,51.8547306654554 L 17.460147363963898,50.497807475849335 L 17.887020791608066,49.184026155131306 L 18.475188655896332,47.93410581954388 M 83.44187420203055,36.89918693812444 L 82.2755268419322,37.63937348048252 L 81.02560650634479,38.22754134477077 L 79.71182518562674,38.65441477241496 L 78.35490199602069,38.91326171445926 L 76.97623642681333,39.000000000000014 L 75.59757085760599,38.91326171445927 L 74.24064766799992,38.65441477241495 L 72.92686634728187,38.22754134477077 L 71.67694601169447,37.639373480482504 L 70.51059865159613,36.89918693812443 L 69.44621826159776,36.01865490163554 L 68.50059075627966,35.0116638872356 L 67.68862924629117,33.894094744768964 L 67.02313884968711,32.6835722072158 L 66.51461474756665,31.39918693812443 L 66.17107666879777,30.061194460442977 L 65.99794241410235,28.690695714822464 L 65.99794241410235,27.309304285177557 L 66.17107666879777,25.938805539557038 L 66.51461474756665,24.60081306187559 L 67.02313884968711,23.316427792784214 L 67.68862924629117,22.105905255231043 L 68.50059075627966,20.988336112764422 L 69.44621826159776,19.981345098364486 L 70.51059865159614,19.100813061875584 L 71.67694601169447,18.360626519517513 L 72.92686634728187,17.772458655229247 L 74.24064766799994,17.34558522758508 L 75.597570857606,17.086738285540754 L 76.97623642681333,17.00000000000002 L 78.35490199602069,17.086738285540754 L 79.71182518562675,17.345585227585072 L 81.0256065063448,17.77245865522924 L 82.2755268419322,18.360626519517513 L 83.44187420203055,19.100813061875588 L 84.50625459202891,19.98134509836448 L 85.45188209734701,20.98833611276443 L 86.2638436073355,22.105905255231058 L 86.92933400393956,23.316427792784214 L 87.43785810606003,24.600813061875595 L 87.7813961848289,25.938805539557055 L 87.95453043952432,27.309304285177575 L 87.95453043952433,28.690695714822464 L 87.7813961848289,30.06119446044299 L 87.43785810606002,31.399186938124437 L 86.92933400393954,32.68357220721581 L 86.2638436073355,33.89409474476898 L 85.45188209734701,35.0116638872356 L 84.50625459202891,36.01865490163554 L 83.44187420203055,36.89918693812444 "
  />
  <path id="face0-interior"
 style="fill:none;stroke:#FF0000;stroke-width:1;stroke-miterlimit:4;stroke-dasharray:none;stroke-linejoin:round;stroke-linecap:round"
        d="M 83.06972757840349,67.15862908349911 M 82.68779898289789,66.9565189555414 M 81.3671168240981,66.15803399427352 M 80.15692534073725,65.20031995994809 M 79.07630997544132,64.09848057499704 M 78.14231267804931,62.86989250472797 M 77.36966314388407,61.533931316931984 M 76.77054651765782,60.11166591760515 M 76.3544112264611,58.62552628171503 M 76.12781997242323,57.098949719096396 M 76.09434623497944,55.55601125407435 M 76.10170105604843,55.4855280707533 M 76.25451791496549,54.02104394794908 M 76.60580900930606,52.51825515208319 M 77.14267944759226,51.07134474351002 M 77.85666246230147,49.703131363715116 M 78.73649811477894,48.43519255502894 M 79.76831087119677,47.287524469894365 M 80.93582842801119,46.27822651959767 M 82.22063833591005,45.423215935740394 M 83.60247837513754,44.735976745988545 M 85.64780256064421,43.77352024078956 M 87.55637096807786,42.56230589874907 M 89.29808433352973,41.12143529358542 M 90.84547479677755,39.47363181547643 M 92.1741390858496,37.64488230962196 M 93.26312337120169,35.66402724817132 M 94.0952537201261,33.562305898749074 M 94.65740693992973,31.37286366254306 M 94.94071753852222,29.130229351527653 M 94.94071753852224,26.86977064847238 M 94.65740693992973,24.627136337456975 M 94.09525372012611,22.43769410125096 M 93.2631233712017,20.335972751828713 M 92.1741390858496,18.355117690378076 M 90.84547479677755,16.52636818452361 M 89.29808433352974,14.878564706414608 M 87.55637096807786,13.437694101250965 M 85.64780256064421,12.22647975921047 M 83.60247837513754,11.264023254011484 M 81.45265439578073,10.56550309968464 M 79.23223463097081,10.141935376339418 M 76.97623642681333,10.0 M 74.72023822265588,10.141935376339404 M 72.49981845784596,10.56550309968464 M 70.34999447848914,11.264023254011484 M 68.30467029298246,12.22647975921047 M 66.39610188554883,13.437694101250955 M 64.65438852009696,14.878564706414586 M 63.106998056849136,16.526368184523587 M 61.77833376777706,18.355117690378076 M 60.68934948242498,20.33597275182871 M 59.85721913350057,22.437694101250955 M 59.295065913696945,24.62713633745697 M 59.01175531510445,26.869770648472365 M 59.01175531510445,29.130229351527646 M 58.940176336024415,30.672641532290392 M 58.67584627247005,32.1939201074083 M 58.22293376744676,33.67007360498399 M 57.58858152171557,35.07782220254934 M 56.782793649135314,36.39496486377251 M 55.81827790581094,37.60072946206307 M 54.71024528118844,38.6761003694172 M 53.47617011166474,39.604118344230415 M 52.135514499863945,40.37014798866889 M 50.70942138565306,40.96210855763586 M 49.22038110934989,41.37066447933864 M 47.6918767256213,41.58937258283249 M 46.14801366168292,41.614783710675454 M 44.61313956031218,41.44649711420152 M 43.111460302977015,41.087166773566665 M 41.666658268625355,40.54245954289621 M 40.35298885574313,39.84816834225162 M 40.301518848421765,39.82096578061018 M 38.78308650773226,38.54943217182585 M 38.22304846922962,38.19402122523331 M 36.85857330899297,37.3280989575275 M 34.79616183064249,36.3576017826536 M 32.628377533719274,35.653245967398846 M 30.389407671557365,35.22613962373157 M 28.114562136378865,35.083018473832354 M 25.839716601200365,35.22613962373153 M 23.600746739038456,35.653245967398846 M 21.43296244211524,36.35760178265355 M 19.370550963764742,37.32809895752747 M 17.44603776502545,38.54943217182584 M 15.689773568689958,40.00234027117007 M 14.129455710275835,41.66391002690835 M 12.789691334498983,43.50793749141894 M 11.691609325901865,45.50534125001794 M 10.852527093722458,47.624621052241 M 10.285677466005595,49.83235458961082 M 10.0,52.0937245854069 M 10.0,54.373067883918566 M 10.285677466005609,56.63443787971464 M 10.852527093722443,58.84217141708439 M 11.69160932590188,60.96145121930759 M 12.789691334498968,62.95885497790669 M 14.129455710275849,64.80288244241697 M 15.689773568689958,66.4644521981553 M 17.446037765025437,67.91736029749934 M 19.370550963764714,69.13869351179784 M 21.432962442115198,70.10919068667201 M 23.600746739038414,70.81354650192665 M 25.839716601200323,71.24065284559384 M 28.114562136378822,71.38377399549321 M 30.389407671557336,71.24065284559393 M 32.628377533719146,70.81354650192672 M 34.796161830642355,70.10919068667182 M 36.544119677326556,69.27812985396017 M 37.795884034383555,68.36866981351677 M 39.11247007557188,67.64487051236202 M 39.151763423267546,67.62326881166558 M 40.59037481605273,67.05368226748655 M 42.089030451690085,66.66889290103585 M 43.62409563555214,66.4749690704844 M 45.17136147268592,66.47496907048439 M 46.70642665654799,66.66889290103592 M 48.20508229218535,67.0536822674874 M 49.64369368497052,67.6232688116659 M 50.999573073854506,68.36866981351683 M 52.251337430911505,69.27812985396017 M 53.37924568446296,70.33730620487243 M 54.365510047570616,71.52949502247853 M 55.19457654206249,72.83589477694585 M 55.85337029406014,74.23590276374095 M 56.33150173255026,75.7074400205879 M 56.621430439125966,77.22729952589248 M 56.718584064889555,78.7715121873359 M 56.621430439125966,80.31572484877934 M 56.43368033286371,81.801919972761 M 56.43368033286371,83.99787442955628 M 56.43368033286371,84.06237867581626 M 56.71699093145621,86.30501298683168 M 57.27914415125985,88.4944552230377 M 58.11127450018425,90.59617657245994 M 59.20025878553634,92.5770316339106 M 60.5289230746084,94.40578113976505 M 62.07631353785621,96.05358461787407 M 63.81802690330808,97.49445522303769 M 65.72659531074173,98.70566956507818 M 67.7719194962484,99.66812607027717 M 69.92174347560521,100.36664622460401 M 72.14216324041513,100.79021394794924 M 74.39816144457261,100.93214932428864 M 76.65415964873007,100.79021394794924 M 78.87457941353999,100.36664622460401 M 81.02440339289682,99.66812607027717 M 83.06972757840349,98.70566956507818 M 84.97829598583712,97.49445522303772 M 86.720009351289,96.05358461787407 M 88.26739981453682,94.40578113976505 M 89.59606410360888,92.5770316339106 M 90.68504838896096,90.59617657245994 M 91.51717873788537,88.4944552230377 M 92.079331957689,86.30501298683168 M 92.3626425562815,84.06237867581629 M 92.36264255628149,81.801919972761 M 92.07933195768899,79.5592856617456 M 91.51717873788537,77.36984342553959 M 90.68504838896096,75.26812207611735 M 89.59606410360888,73.28726701466671 M 88.26739981453682,71.45851750881224 M 86.72000935128901,69.81071403070324 M 84.97829598583712,68.36984342553959 M 65.11055426405044,77.03805457951968 M 65.92251577403891,75.92048543705305 M 66.86814327935703,74.91349442265312 M 67.93252366935539,74.03296238616421 M 69.09887102945373,73.29277584380614 M 70.34879136504115,72.70460797951787 M 71.6625726857592,72.2777345518737 M 73.01949587536527,72.01888760982939 M 74.39816144457261,71.93214932428864 M 75.77682701377995,72.01888760982939 M 77.13375020338601,72.27773455187369 M 78.44753152410406,72.70460797951787 M 79.69745185969148,73.29277584380615 M 80.86379921978981,74.03296238616423 M 81.92817960978817,74.91349442265312 M 82.87380711510629,75.92048543705306 M 83.68576862509477,77.0380545795197 M 84.35125902169882,78.24857711707284 M 84.8597831238193,79.53296238616423 M 85.20332120258819,80.87095486384567 M 85.37645545728358,82.24145360946619 M 85.3764554572836,83.6228450391111 M 85.20332120258819,84.99334378473162 M 84.8597831238193,86.33133626241306 M 84.35125902169882,87.61572153150445 M 83.68576862509477,88.8262440690576 M 82.87380711510629,89.94381321152423 M 81.92817960978817,90.95080422592417 M 80.8637992197898,91.83133626241307 M 79.69745185969148,92.57152280477115 M 78.44753152410406,93.15969066905942 M 77.133750203386,93.5865640967036 M 75.77682701377995,93.8454110387479 M 74.39816144457261,93.93214932428864 M 73.01949587536527,93.8454110387479 M 71.6625726857592,93.5865640967036 M 70.34879136504114,93.15969066905942 M 69.09887102945373,92.57152280477115 M 67.9325236693554,91.83133626241306 M 66.86814327935704,90.95080422592417 M 65.92251577403891,89.94381321152423 M 65.11055426405044,88.82624406905761 M 64.4450638674464,87.61572153150445 M 63.93653976532591,86.33133626241306 M 63.59300168655703,84.99334378473162 M 63.41986743186162,83.6228450391111 M 63.41986743186162,82.24145360946619 M 63.59300168655703,80.87095486384567 M 63.93653976532591,79.53296238616423 M 64.4450638674464,78.24857711707284 M 51.35400766538791,61.73351240688605 M 50.542046155399426,60.61594326441943 M 49.87655575879537,59.40542072686627 M 49.36803165667489,58.121035457774916 M 49.024493577906014,56.78304298009345 M 48.8513593232106,55.412544234472904 M 48.8513593232106,54.03115280482802 M 49.024493577906014,52.66065405920748 M 49.3680316566749,51.32266158152605 M 49.876555758795384,50.03827631243466 M 50.54204615539941,48.827753774881515 M 51.35400766538791,47.71018463241487 M 52.29963517070601,46.703193618014936 M 53.364015560704374,45.822661581526056 M 54.53036292080271,45.08247503916797 M 55.78028325639013,44.4943071748797 M 57.094064577108185,44.06743374723552 M 58.45098776671424,43.80858680519121 M 59.829653335921584,43.72184851965046 M 61.20831890512893,43.80858680519121 M 62.56524209473499,44.06743374723552 M 63.87902341545305,44.494307174879694 M 65.12894375104047,45.08247503916796 M 66.2952911111388,45.82266158152604 M 67.35967150113716,46.70319361801495 M 68.30529900645527,47.71018463241488 M 69.11726051644375,48.82775377488151 M 69.7827509130478,50.038276312434675 M 70.29127501516828,51.32266158152604 M 70.63481309393717,52.6606540592075 M 70.80794734863258,54.03115280482802 M 70.80794734863258,55.41254423447291 M 70.63481309393717,56.78304298009344 M 70.29127501516828,58.12103545777488 M 69.78275091304779,59.40542072686627 M 69.11726051644375,60.61594326441942 M 68.30529900645527,61.73351240688605 M 67.35967150113716,62.74050342128599 M 66.29529111113878,63.621035457774894 M 65.12894375104045,64.36122200013298 M 63.879023415453034,64.94938986442125 M 62.56524209473499,65.37626329206537 M 61.20831890512893,65.6351102341097 M 59.829653335921584,65.72184851965048 M 58.450987766714235,65.63511023410977 M 57.094064577108185,65.3762632920654 M 55.78028325639013,64.94938986442122 M 54.530362920802716,64.36122200013298 M 53.36401556070438,63.62103545777489 M 52.29963517070601,62.740503421285965 M 18.475188655896332,47.93410581954388 M 19.21537519825442,46.767758459445545 M 20.095907234743308,45.703378069447176 M 21.10289824914325,44.75775056412906 M 22.220467391609873,43.94578905414056 M 23.430989929163033,43.28029865753653 M 24.715375198254407,42.771774555416066 M 26.05336767593589,42.42823647664714 M 27.423866421556397,42.25510222195174 M 28.805257851201276,42.255102221951766 M 30.1757565968218,42.42823647664717 M 31.51374907450326,42.77177455541608 M 32.798134343594626,43.280298657536555 M 34.00865688114779,43.94578905414059 M 35.12622602361442,44.75775056412907 M 36.13321703801436,45.70337806944718 M 37.013749074503245,46.767758459445545 M 37.75393561686133,47.93410581954388 M 38.342103481149586,49.18402615513132 M 38.76897690879378,50.49780747584934 M 39.02782385083809,51.85473066545542 M 39.11456213637884,53.23339623466276 M 39.02782385083809,54.612061803870105 M 38.76897690879377,55.968984993476155 M 38.34210348114959,57.28276631419422 M 37.75393561686133,58.53268664978163 M 37.013749074503245,59.69903400987997 M 36.13321703801435,60.76341439987838 M 35.12622602361442,61.70904190519641 M 34.00865688114778,62.52100341518496 M 32.798134343594626,63.186493811788885 M 31.51374907450326,63.69501791390945 M 30.1757565968218,64.03855599267817 M 28.805257851201276,64.21169024737381 M 27.423866421556383,64.21169024737361 M 26.053367675935846,64.03855599267833 M 24.715375198254407,63.695017913909496 M 23.43098992916302,63.18649381178898 M 22.220467391609873,62.52100341518491 M 21.102898249143237,61.709041905196614 M 20.095907234743294,60.76341439987829 M 19.215375198254407,59.69903400988001 M 18.475188655896346,58.53268664978163 M 17.88702079160805,57.282766314194276 M 17.460147363963898,55.96898499347613 M 17.20130042191957,54.61206180387009 M 17.114562136378836,53.233396234662756 M 17.20130042191957,51.8547306654554 M 17.460147363963898,50.497807475849335 M 17.887020791608066,49.184026155131306 M 83.44187420203055,36.89918693812444 M 82.2755268419322,37.63937348048252 M 81.02560650634479,38.22754134477077 M 79.71182518562674,38.65441477241496 M 78.35490199602069,38.91326171445926 M 76.97623642681333,39.000000000000014 M 75.59757085760599,38.91326171445927 M 74.24064766799992,38.65441477241495 M 72.92686634728187,38.22754134477077 M 71.67694601169447,37.639373480482504 M 70.51059865159613,36.89918693812443 M 69.44621826159776,36.01865490163554 M 68.50059075627966,35.0116638872356 M 67.68862924629117,33.894094744768964 M 67.02313884968711,32.6835722072158 M 66.51461474756665,31.39918693812443 M 66.17107666879777,30.061194460442977 M 65.99794241410235,28.690695714822464 M 65.99794241410235,27.309304285177557 M 66.17107666879777,25.938805539557038 M 66.51461474756665,24.60081306187559 M 67.02313884968711,23.316427792784214 M 67.68862924629117,22.105905255231043 M 68.50059075627966,20.988336112764422 M 69.44621826159776,19.981345098364486 M 70.51059865159614,19.100813061875584 M 71.67694601169447,18.360626519517513 M 72.92686634728187,17.772458655229247 M 74.24064766799994,17.34558522758508 M 75.597570857606,17.086738285540754 M 76.97623642681333,17.00000000000002 M 78.35490199602069,17.086738285540754 M 79.71182518562675,17.345585227585072 M 81.0256065063448,17.77245865522924 M 82.2755268419322,18.360626519517513 M 83.44187420203055,19.100813061875588 M 84.50625459202891,19.98134509836448 M 85.45188209734701,20.98833611276443 M 86.2638436073355,22.105905255231058 M 86.92933400393956,23.316427792784214 M 87.43785810606003,24.600813061875595 M 87.7813961848289,25.938805539557055 M 87.95453043952432,27.309304285177575 M 87.95453043952433,28.690695714822464 M 87.7813961848289,30.06119446044299 M 87.43785810606002,31.399186938124437 M 86.92933400393954,32.68357220721581 M 86.2638436073355,33.89409474476898 M 85.45188209734701,35.0116638872356 M 84.50625459202891,36.01865490163554 "
  />
  <path id="face0-interior"
 style="fill:none;stroke:#00FF00;stroke-width:1;stroke-miterlimit:4;stroke-dasharray:none;stroke-linejoin:round;stroke-linecap:round"
        d="M 83.06972757840349,67.15862908349911 M 82.68779898289789,66.9565189555414 M 81.3671168240981,66.15803399427352 M 80.15692534073725,65.20031995994809 M 79.07630997544132,64.09848057499704 M 78.14231267804931,62.86989250472797 M 77.36966314388407,61.533931316931984 M 76.77054651765782,60.11166591760515 M 76.3544112264611,58.62552628171503 M 76.12781997242323,57.098949719096396 M 76.09434623497944,55.55601125407435 M 76.10170105604843,55.4855280707533 M 76.25451791496549,54.02104394794908 M 76.60580900930606,52.51825515208319 M 77.14267944759226,51.07134474351002 M 77.85666246230147,49.703131363715116 M 78.73649811477894,48.43519255502894 M 79.76831087119677,47.287524469894365 M 80.93582842801119,46.27822651959767 M 82.22063833591005,45.423215935740394 M 83.60247837513754,44.735976745988545 M 85.64780256064421,43.77352024078956 M 87.55637096807786,42.56230589874907 M 89.29808433352973,41.12143529358542 M 90.84547479677755,39.47363181547643 M 92.1741390858496,37.64488230962196 M 93.26312337120169,35.66402724817132 M 94.0952537201261,33.562305898749074 M 94.65740693992973,31.37286366254306 M 94.94071753852222,29.130229351527653 M 94.94071753852224,26.86977064847238 M 94.65740693992973,24.627136337456975 M 94.09525372012611,22.43769410125096 M 93.2631233712017,20.335972751828713 M 92.1741390858496,18.355117690378076 M 90.84547479677755,16.52636818452361 M 89.29808433352974,14.878564706414608 M 87.55637096807786,13.437694101250965 M 85.64780256064421,12.22647975921047 M 83.60247837513754,11.264023254011484 M 81.45265439578073,10.56550309968464 M 79.23223463097081,10.141935376339418 M 76.97623642681333,10.0 M 74.72023822265588,10.141935376339404 M 72.49981845784596,10.56550309968464 M 70.34999447848914,11.264023254011484 M 68.30467029298246,12.22647975921047 M 66.39610188554883,13.437694101250955 M 64.65438852009696,14.878564706414586 M 63.106998056849136,16.526368184523587 M 61.77833376777706,18.355117690378076 M 60.68934948242498,20.33597275182871 M 59.85721913350057,22.437694101250955 M 59.295065913696945,24.62713633745697 M 59.01175531510445,26.869770648472365 M 59.01175531510445,29.130229351527646 M 58.940176336024415,30.672641532290392 M 58.67584627247005,32.1939201074083 M 58.22293376744676,33.67007360498399 M 57.58858152171557,35.07782220254934 M 56.782793649135314,36.39496486377251 M 55.81827790581094,37.60072946206307 M 54.71024528118844,38.6761003694172 M 53.47617011166474,39.604118344230415 M 52.135514499863945,40.37014798866889 M 50.70942138565306,40.96210855763586 M 49.22038110934989,41.37066447933864 M 47.6918767256213,41.58937258283249 M 46.14801366168292,41.614783710675454 M 44.61313956031218,41.44649711420152 M 43.111460302977015,41.087166773566665 M 41.666658268625355,40.54245954289621 M 40.35298885574313,39.84816834225162 M 40.301518848421765,39.82096578061018 M 38.78308650773226,38.54943217182585 M 38.22304846922962,38.19402122523331 M 36.85857330899297,37.3280989575275 M 34.79616183064249,36.3576017826536 M 32.628377533719274,35.653245967398846 M 30.389407671557365,35.22613962373157 M 28.114562136378865,35.083018473832354 M 25.839716601200365,35.22613962373153 M 23.600746739038456,35.653245967398846 M 21.43296244211524,36.35760178265355 M 19.370550963764742,37.32809895752747 M 17.44603776502545,38.54943217182584 M 15.689773568689958,40.00234027117007 M 14.129455710275835,41.66391002690835 M 12.789691334498983,43.50793749141894 M 11.691609325901865,45.50534125001794 M 10.852527093722458,47.624621052241 M 10.285677466005595,49.83235458961082 M 10.0,52.0937245854069 M 10.0,54.373067883918566 M 10.285677466005609,56.63443787971464 M 10.852527093722443,58.84217141708439 M 11.69160932590188,60.96145121930759 M 12.789691334498968,62.95885497790669 M 14.129455710275849,64.80288244241697 M 15.689773568689958,66.4644521981553 M 17.446037765025437,67.91736029749934 M 19.370550963764714,69.13869351179784 M 21.432962442115198,70.10919068667201 M 23.600746739038414,70.81354650192665 M 25.839716601200323,71.24065284559384 M 28.114562136378822,71.38377399549321 M 30.389407671557336,71.24065284559393 M 32.628377533719146,70.81354650192672 M 34.796161830642355,70.10919068667182 M 36.544119677326556,69.27812985396017 M 37.795884034383555,68.36866981351677 M 39.11247007557188,67.64487051236202 M 39.151763423267546,67.62326881166558 M 40.59037481605273,67.05368226748655 M 42.089030451690085,66.66889290103585 M 43.62409563555214,66.4749690704844 M 45.17136147268592,66.47496907048439 M 46.70642665654799,66.66889290103592 M 48.20508229218535,67.0536822674874 M 49.64369368497052,67.6232688116659 M 50.999573073854506,68.36866981351683 M 52.251337430911505,69.27812985396017 M 53.37924568446296,70.33730620487243 M 54.365510047570616,71.52949502247853 M 55.19457654206249,72.83589477694585 M 55.85337029406014,74.23590276374095 M 56.33150173255026,75.7074400205879 M 56.621430439125966,77.22729952589248 M 56.718584064889555,78.7715121873359 M 56.621430439125966,80.31572484877934 M 56.43368033286371,81.801919972761 M 56.43368033286371,83.99787442955628 M 56.43368033286371,84.06237867581626 M 56.71699093145621,86.30501298683168 M 57.27914415125985,88.4944552230377 M 58.11127450018425,90.59617657245994 M 59.20025878553634,92.5770316339106 M 60.5289230746084,94.40578113976505 M 62.07631353785621,96.05358461787407 M 63.81802690330808,97.49445522303769 M 65.72659531074173,98.70566956507818 M 67.7719194962484,99.66812607027717 M 69.92174347560521,100.36664622460401 M 72.14216324041513,100.79021394794924 M 74.39816144457261,100.93214932428864 M 76.65415964873007,100.79021394794924 M 78.87457941353999,100.36664622460401 M 81.02440339289682,99.66812607027717 M 83.06972757840349,98.70566956507818 M 84.97829598583712,97.49445522303772 M 86.720009351289,96.05358461787407 M 88.26739981453682,94.40578113976505 M 89.59606410360888,92.5770316339106 M 90.68504838896096,90.59617657245994 M 91.51717873788537,88.4944552230377 M 92.079331957689,86.30501298683168 M 92.3626425562815,84.06237867581629 M 92.36264255628149,81.801919972761 M 92.07933195768899,79.5592856617456 M 91.51717873788537,77.36984342553959 M 90.68504838896096,75.26812207611735 M 89.59606410360888,73.28726701466671 M 88.26739981453682,71.45851750881224 M 86.72000935128901,69.81071403070324 M 84.97829598583712,68.36984342553959 M 65.11055426405044,77.03805457951968 M 65.92251577403891,75.92048543705305 M 66.86814327935703,74.91349442265312 M 67.93252366935539,74.03296238616421 M 69.09887102945373,73.29277584380614 M 70.34879136504115,72.70460797951787 M 71.6625726857592,72.2777345518737 M 73.01949587536527,72.01888760982939 M 74.39816144457261,71.93214932428864 M 75.77682701377995,72.01888760982939 M 77.13375020338601,72.27773455187369 M 78.44753152410406,72.70460797951787 M 79.69745185969148,73.29277584380615 M 80.86379921978981,74.03296238616423 M 81.92817960978817,74.91349442265312 M 82.87380711510629,75.92048543705306 M 83.68576862509477,77.0380545795197 M 84.35125902169882,78.24857711707284 M 84.8597831238193,79.53296238616423 M 85.20332120258819,80.87095486384567 M 85.37645545728358,82.24145360946619 M 85.3764554572836,83.6228450391111 M 85.20332120258819,84.99334378473162 M 84.8597831238193,86.33133626241306 M 84.35125902169882,87.61572153150445 M 83.68576862509477,88.8262440690576 M 82.87380711510629,89.94381321152423 M 81.92817960978817,90.95080422592417 M 80.8637992197898,91.83133626241307 M 79.69745185969148,92.57152280477115 M 78.44753152410406,93.15969066905942 M 77.133750203386,93.5865640967036 M 75.77682701377995,93.8454110387479 M 74.39816144457261,93.93214932428864 M 73.01949587536527,93.8454110387479 M 71.6625726857592,93.5865640967036 M 70.34879136504114,93.15969066905942 M 69.09887102945373,92.57152280477115 M 67.9325236693554,91.83133626241306 M 66.86814327935704,90.95080422592417 M 65.92251577403891,89.94381321152423 M 65.11055426405044,88.82624406905761 M 64.4450638674464,87.61572153150445 M 63.93653976532591,86.33133626241306 M 63.59300168655703,84.99334378473162 M 63.41986743186162,83.6228450391111 M 63.41986743186162,82.24145360946619 M 63.59300168655703,80.87095486384567 M 63.93653976532591,79.53296238616423 M 64.4450638674464,78.24857711707284 M 51.35400766538791,61.73351240688605 M 50.542046155399426,60.61594326441943 M 49.87655575879537,59.40542072686627 M 49.36803165667489,58.121035457774916 M 49.024493577906014,56.78304298009345 M 48.8513593232106,55.412544234472904 M 48.8513593232106,54.03115280482802 M 49.024493577906014,52.66065405920748 M 49.3680316566749,51.32266158152605 M 49.876555758795384,50.03827631243466 M 50.54204615539941,48.827753774881515 M 51.35400766538791,47.71018463241487 M 52.29963517070601,46.703193618014936 M 53.364015560704374,45.822661581526056 M 54.53036292080271,45.08247503916797 M 55.78028325639013,44.4943071748797 M 57.094064577108185,44.06743374723552 M 58.45098776671424,43.80858680519121 M 59.829653335921584,43.72184851965046 M 61.20831890512893,43.80858680519121 M 62.56524209473499,44.06743374723552 M 63.87902341545305,44.494307174879694 M 65.12894375104047,45.08247503916796 M 66.2952911111388,45.82266158152604 M 67.35967150113716,46.70319361801495 M 68.30529900645527,47.71018463241488 M 69.11726051644375,48.82775377488151 M 69.7827509130478,50.038276312434675 M 70.29127501516828,51.32266158152604 M 70.63481309393717,52.6606540592075 M 70.80794734863258,54.03115280482802 M 70.80794734863258,55.41254423447291 M 70.63481309393717,56.78304298009344 M 70.29127501516828,58.12103545777488 M 69.78275091304779,59.40542072686627 M 69.11726051644375,60.61594326441942 M 68.30529900645527,61.73351240688605 M 67.35967150113716,62.74050342128599 M 66.29529111113878,63.621035457774894 M 65.12894375104045,64.36122200013298 M 63.879023415453034,64.94938986442125 M 62.56524209473499,65.37626329206537 M 61.20831890512893,65.6351102341097 M 59.829653335921584,65.72184851965048 M 58.450987766714235,65.63511023410977 M 57.094064577108185,65.3762632920654 M 55.78028325639013,64.94938986442122 M 54.530362920802716,64.36122200013298 M 53.36401556070438,63.62103545777489 M 52.29963517070601,62.740503421285965 M 18.475188655896332,47.93410581954388 M 19.21537519825442,46.767758459445545 M 20.095907234743308,45.703378069447176 M 21.10289824914325,44.75775056412906 M 22.220467391609873,43.94578905414056 M 23.430989929163033,43.28029865753653 M 24.715375198254407,42.771774555416066 M 26.05336767593589,42.42823647664714 M 27.423866421556397,42.25510222195174 M 28.805257851201276,42.255102221951766 M 30.1757565968218,42.42823647664717 M 31.51374907450326,42.77177455541608 M 32.798134343594626,43.280298657536555 M 34.00865688114779,43.94578905414059 M 35.12622602361442,44.75775056412907 M 36.13321703801436,45.70337806944718 M 37.013749074503245,46.767758459445545 M 37.75393561686133,47.93410581954388 M 38.342103481149586,49.18402615513132 M 38.76897690879378,50.49780747584934 M 39.02782385083809,51.85473066545542 M 39.11456213637884,53.23339623466276 M 39.02782385083809,54.612061803870105 M 38.76897690879377,55.968984993476155 M 38.34210348114959,57.28276631419422 M 37.75393561686133,58.53268664978163 M 37.013749074503245,59.69903400987997 M 36.13321703801435,60.76341439987838 M 35.12622602361442,61.70904190519641 M 34.00865688114778,62.52100341518496 M 32.798134343594626,63.186493811788885 M 31.51374907450326,63.69501791390945 M 30.1757565968218,64.03855599267817 M 28.805257851201276,64.21169024737381 M 27.423866421556383,64.21169024737361 M 26.053367675935846,64.03855599267833 M 24.715375198254407,63.695017913909496 M 23.43098992916302,63.18649381178898 M 22.220467391609873,62.52100341518491 M 21.102898249143237,61.709041905196614 M 20.095907234743294,60.76341439987829 M 19.215375198254407,59.69903400988001 M 18.475188655896346,58.53268664978163 M 17.88702079160805,57.282766314194276 M 17.460147363963898,55.96898499347613 M 17.20130042191957,54.61206180387009 M 17.114562136378836,53.233396234662756 M 17.20130042191957,51.8547306654554 M 17.460147363963898,50.497807475849335 M 17.887020791608066,49.184026155131306 M 83.44187420203055,36.89918693812444 M 82.2755268419322,37.63937348048252 M 81.02560650634479,38.22754134477077 M 79.71182518562674,38.65441477241496 M 78.35490199602069,38.91326171445926 M 76.97623642681333,39.000000000000014 M 75.59757085760599,38.91326171445927 M 74.24064766799992,38.65441477241495 M 72.92686634728187,38.22754134477077 M 71.67694601169447,37.639373480482504 M 70.51059865159613,36.89918693812443 M 69.44621826159776,36.01865490163554 M 68.50059075627966,35.0116638872356 M 67.68862924629117,33.894094744768964 M 67.02313884968711,32.6835722072158 M 66.51461474756665,31.39918693812443 M 66.17107666879777,30.061194460442977 M 65.99794241410235,28.690695714822464 M 65.99794241410235,27.309304285177557 M 66.17107666879777,25.938805539557038 M 66.51461474756665,24.60081306187559 M 67.02313884968711,23.316427792784214 M 67.68862924629117,22.105905255231043 M 68.50059075627966,20.988336112764422 M 69.44621826159776,19.981345098364486 M 70.51059865159614,19.100813061875584 M 71.67694601169447,18.360626519517513 M 72.92686634728187,17.772458655229247 M 74.24064766799994,17.34558522758508 M 75.597570857606,17.086738285540754 M 76.97623642681333,17.00000000000002 M 78.35490199602069,17.086738285540754 M 79.71182518562675,17.345585227585072 M 81.0256065063448,17.77245865522924 M 82.2755268419322,18.360626519517513 M 83.44187420203055,19.100813061875588 M 84.50625459202891,19.98134509836448 M 85.45188209734701,20.98833611276443 M 86.2638436073355,22.105905255231058 M 86.92933400393956,23.316427792784214 M 87.43785810606003,24.600813061875595 M 87.7813961848289,25.938805539557055 M 87.95453043952432,27.309304285177575 M 87.95453043952433,28.690695714822464 M 87.7813961848289,30.06119446044299 M 87.43785810606002,31.399186938124437 M 86.92933400393954,32.68357220721581 M 86.2638436073355,33.89409474476898 M 85.45188209734701,35.0116638872356 M 84.50625459202891,36.01865490163554 "
  />
</svg>
