<svg xmlns="http://www.w3.org/2000/svg" width="400" height="400" viewBox="0 0 105 105">

    <!-- outer circles -->
    <ellipse fill="hsl(199, 91%, 64%)" cx="78.803" cy="-71.335" rx="12.465" ry="12.935" transform="scale(1 -1)"/>
    <ellipse fill="hsl(199, 91%, 64%)" ry="12.935" rx="12.465" cy="-21.283" cx="53.781" transform="scale(1 -1)"/>
    <ellipse fill="hsl(199, 91%, 64%)" cx="24.119" cy="-68.785" rx="12.465" ry="12.935" transform="scale(1 -1)"/>

    <!-- inner circle -->
    <ellipse fill="hsl(199, 98%, 48%)" transform="scale(1 -1)" ry="12.935" rx="12.465" cy="-52.854" cx="52.449"/>

    <!-- spinner body -->
    <path fill="hsl(187, 100%, 42%)" stroke="hsl(212, 80%, 42%)" stroke-linecap="round" stroke-linejoin="round" d="M78.828 51.524l-.432.021-1.542-.012-1.53-.206-1.492-.396-1.43-.58-1.347-.754-1.242-.916-1.116-1.066-.974-1.196-.816-1.31-.03-.064-.616-1.338-.466-1.471-.277-1.519-.084-1.54.109-1.54.301-1.514.488-1.464.669-1.39.838-1.297 1.266-1.872 1.023-2.016.762-2.128.49-2.207.208-2.251-.074-2.259-.358-2.232-.635-2.17-.901-2.072-1.154-1.944-1.388-1.784-1.602-1.596-1.789-1.381-1.947-1.148-2.076-.895-2.172-.626-2.233-.35L53 2.975l-2.25.217-2.205.497-2.125.768-2.012 1.031-1.868 1.273-1.692 1.498-1.492 1.699-1.268 1.871-1.023 2.016-.762 2.128-.49 2.208-.208 2.25.074 2.26.359 2.231.634 2.17.901 2.073 1.154 1.943.727 1.364.55 1.442.364 1.502.173 1.533-.02 1.545-.213 1.528-.404 1.491-.588 1.429-.761 1.342-.924 1.238-1.073 1.111-1.202.968-1.315.81-1.405.64-1.475.456-1.52.27-1.484.074-.058.003-1.955-.318-.663-.02-1.615-.048-2.27.22-2.222.5-2.145.776-2.028 1.038-1.883 1.285-1.707 1.51-1.505 1.712-1.278 1.887-1.031 2.033-.768 2.146-.494 2.225-.21 2.27.076 2.278.36 2.252.64 2.187.908 2.09 1.164 1.96 1.4 1.798 1.615 1.61 1.804 1.393 1.963 1.157 2.094.901 2.19.633 2.252.353 2.278.067 2.268-.22 2.224-.5 2.144-.776 2.029-1.038 1.883-1.285 1.707-1.51 1.504-1.712 1.079-1.607.612-1.421.763-1.295.023-.039.946-1.224 1.091-1.096 1.222-.95 1.33-.79 1.419-.617 1.485-.434 1.528-.245 1.546-.051 1.541.143 1.511.335 1.456.521 1.38.7 1.281.867 1.163 1.022 1.025 1.159.872 1.278.705 1.377.597 1.374 1.154 1.944 1.389 1.784 1.6 1.595 1.79 1.382 1.947 1.147 2.076.895 2.172.626 2.233.35 2.26.067 2.25-.216 2.205-.497 2.125-.77 2.012-1.029 1.868-1.274 1.692-1.498 1.492-1.698 1.268-1.872 1.023-2.016.762-2.127.49-2.208.208-2.25-.074-2.26-.359-2.232-.634-2.17-.901-2.072-1.154-1.944-1.388-1.784-1.603-1.596-1.788-1.381-1.947-1.148-2.076-.894-2.173-.627-2.232-.35-2.26-.067m-10.4 17.664l.129-1.377.298-1.348.466-1.3.625-1.232.774-1.145.912-1.038 1.035-.915 1.14-.778 1.231-.63 1.299-.469 1.347-.304 1.375-.133 1.38.04 1.365.215 1.328.383 1.269.547 1.19.7 1.093.846.979.975.848 1.09.705 1.187.551 1.266.388 1.327.219 1.364.045 1.38-.128 1.376-.3 1.349-.465 1.3-.624 1.232-.775 1.144-.911 1.038-1.035.915-1.141.78-1.23.628-1.299.47-1.348.304-1.375.132-1.38-.04-1.365-.214-1.327-.384-1.269-.546-1.19-.7-1.093-.846-.979-.975-.848-1.09-.706-1.188-.55-1.266-.388-1.326-.219-1.364-.045-1.38M48.787 63.05l-1.27-.546-1.189-.701-1.093-.844-.978-.976-.848-1.09-.706-1.188-.55-1.266-.39-1.327-.217-1.364-.046-1.38.128-1.375.299-1.35.465-1.3.626-1.232.774-1.144.911-1.037 1.035-.916 1.141-.779 1.23-.629 1.3-.47 1.346-.303 1.375-.133 1.382.04 1.364.214 1.328.384 1.268.546 1.19.7 1.093.846.979.975.848 1.09.705 1.188.551 1.266.389 1.327.218 1.364.045 1.38-.127 1.376-.3 1.349-.465 1.3-.625 1.231-.775 1.145-.91 1.038-1.035.915-1.143.779-1.229.63-1.3.468-1.346.304-1.375.133-1.38-.04-1.365-.214-1.328-.384M13.47 67.97l.041-1.38.215-1.365.382-1.327.547-1.269.701-1.19.845-1.093.976-.978 1.09-.849 1.188-.705 1.266-.55 1.325-.389 1.364-.218 1.38-.046 1.376.128 1.349.299 1.3.465 1.233.626 1.144.774 1.037.911.917 1.034.778 1.142.629 1.23.47 1.3.303 1.346.133 1.375-.04 1.382-.214 1.364-.384 1.328-.546 1.268-.7 1.19-.846 1.094-.975.978-1.09.848-1.188.705-1.267.551-1.325.388-1.365.219-1.38.046-1.376-.128-1.349-.3-1.3-.465-1.232-.625-1.144-.774-1.038-.91-.914-1.036-.78-1.14-.628-1.231-.471-1.299-.304-1.347-.132-1.375m50.228-42.656l-.625 1.231-.774 1.144-.912 1.038-1.035.915-1.141.78-1.23.628-1.299.47-1.347.304-1.375.132-1.38-.04-1.366-.214-1.327-.384-1.268-.546-1.19-.7-1.094-.846-.979-.975-.848-1.09-.705-1.188-.551-1.266-.388-1.327-.219-1.363-.045-1.38.128-1.377.298-1.348.467-1.3.624-1.232.774-1.145.912-1.038 1.035-.915 1.14-.778 1.231-.63 1.3-.469 1.346-.304 1.375-.133 1.38.041 1.366.213 1.327.384 1.269.546 1.19.701 1.093.845.979.975.848 1.09.705 1.188.551 1.266.388 1.327.219 1.364.045 1.38-.128 1.376-.298 1.348-.467 1.3"/>
</svg>
