<?xml version="1.0" encoding="UTF-8" standalone="no"?>
<svg width="100px" height="100px" viewBox="0 0 100 100" version="1.1" xmlns="http://www.w3.org/2000/svg" xmlns:xlink="http://www.w3.org/1999/xlink" xmlns:sketch="http://www.bohemiancoding.com/sketch/ns">
    <title>Artboard 1 1</title>
    <description>Created with Sketch (http://www.bohemiancoding.com/sketch)</description>
    <defs></defs>
    <g id="Page-1" stroke="none" stroke-width="1" fill="none" fill-rule="evenodd" sketch:type="MSPage">
        <g id="Artboard-1-1" sketch:type="MSArtboardGroup" fill="#FFFFFF">
            <g id="mute" sketch:type="MSLayerGroup" transform="translate(8.000000, 10.000000)">
                <g id="Page-1" sketch:type="MSShapeGroup">
                    <g id="mute">
                        <g id="Group">
                            <path d="M39.5618734,0.755789474 C38.5538734,0.364210526 37.5012152,0.174736842 36.4602532,0.174736842 C34.1348354,0.174736842 31.8593924,1.11894737 30.2166076,2.87473684 L17.0583797,16.9410526 L8.54673418,16.9410526 C3.84911392,16.9410526 0.0404050633,20.7115789 0.0404050633,25.3621053 L0.0404050633,54.9252632 C0.0404050633,59.5757895 3.84911392,63.3463158 8.54673418,63.3463158 L17.0488101,63.3463158 L30.2059747,77.4642105 C31.8487595,79.2273684 34.129519,80.1747368 36.4602532,80.1747368 C37.5001519,80.1747368 38.548557,79.9863158 39.5544304,79.5968421 C42.8166076,78.3347368 44.9644557,75.2210526 44.9644557,71.7536842 L44.9644557,8.59578947 C44.9644557,5.13157895 42.8208608,2.02 39.5618734,0.755789474 L39.5618734,0.755789474 L39.5618734,0.755789474 Z M36.4581266,71.7536842 L20.7745823,54.9252632 L8.54673418,54.9252632 L8.54673418,25.3621053 L20.7745823,25.3621053 L36.4581266,8.59684211 L36.4581266,71.7536842 L36.4581266,71.7536842 Z" id="Shape"></path>
                            <path d="M83.3077975,30.6084211 C84.9686582,28.9642105 84.9686582,26.2978947 83.3077975,24.6536842 C81.6469367,23.0094737 78.9546835,23.0094737 77.2938228,24.6536842 L68.0506329,33.8042105 L58.807443,24.6536842 C57.1465823,23.0094737 54.4543291,23.0094737 52.7934684,24.6536842 C51.1326076,26.2978947 51.1326076,28.9642105 52.7934684,30.6084211 L62.0355949,39.7589474 L52.7934684,48.9094737 C51.1326076,50.5536842 51.1326076,53.22 52.7934684,54.8631579 C53.6238987,55.6852632 54.7127089,56.0968421 55.8004557,56.0968421 C56.8882025,56.0968421 57.9770127,55.6852632 58.807443,54.8631579 L68.0506329,45.7147368 L77.2938228,54.8642105 C78.1242532,55.6863158 79.2130633,56.0978947 80.3008101,56.0978947 C81.388557,56.0978947 82.4773671,55.6863158 83.3077975,54.8642105 C84.9686582,53.22 84.9686582,50.5536842 83.3077975,48.9105263 L74.0656709,39.7589474 L83.3077975,30.6084211 L83.3077975,30.6084211 Z" id="Shape"></path>
                        </g>
                    </g>
                </g>
            </g>
        </g>
    </g>
</svg>