<?xml version="1.0" encoding="UTF-8" standalone="no"?>
<svg width="95px" height="88px" viewBox="0 0 95 88" version="1.1" xmlns="http://www.w3.org/2000/svg" xmlns:xlink="http://www.w3.org/1999/xlink" xmlns:sketch="http://www.bohemiancoding.com/sketch/ns">
    <title>Slice 1</title>
    <description>Created with Sketch (http://www.bohemiancoding.com/sketch)</description>
    <defs></defs>
    <g id="Page-1" stroke="none" stroke-width="1" fill="none" fill-rule="evenodd" sketch:type="MSPage">
        <g id="spinner" sketch:type="MSLayerGroup" transform="translate(2.000000, 2.000000)" stroke="#FFFFFF" stroke-width="3" fill="#FFFFFF">
            <path d="M72.396,48.545 L70.854,48.533 L69.324,48.327 L67.832,47.931 L66.402,47.351 L65.055,46.597 L63.813,45.681 L62.697,44.615 L61.723,43.419 L60.907,42.109 L60.261,40.707 L59.795,39.236 L59.518,37.717 L59.434,36.177 L59.543,34.637 L59.844,33.123 L60.332,31.659 L61.001,30.269 L61.839,28.972 L63.105,27.1 L64.128,25.084 L64.89,22.956 L65.38,20.749 L65.588,18.498 L65.514,16.239 L65.156,14.007 L64.521,11.837 L63.62,9.765 L62.466,7.821 L61.078,6.037 L59.476,4.441 L57.687,3.06 L55.74,1.912 L53.664,1.017 L51.492,0.391 L49.259,0.041 L47,-0.025 L44.75,0.192 L42.545,0.689 L40.42,1.457 L38.408,2.488 L36.54,3.761 L34.848,5.259 L33.356,6.958 L32.088,8.829 L31.065,10.845 L30.303,12.973 L29.813,15.181 L29.605,17.431 L29.679,19.691 L30.038,21.922 L30.672,24.092 L31.573,26.165 L32.727,28.108 L33.454,29.472 L34.004,30.914 L34.368,32.416 L34.541,33.949 L34.521,35.494 L34.308,37.022 L33.904,38.513 L33.316,39.942 L32.555,41.284 L31.631,42.522 L30.558,43.633 L29.356,44.601 L28.041,45.411 L26.636,46.051 L25.161,46.507 L23.641,46.777 L22.157,46.851 L20.144,46.536 L19.481,46.516 L17.866,46.468 L15.596,46.688 L13.374,47.188 L11.229,47.964 L9.201,49.002 L7.318,50.287 L5.611,51.797 L4.106,53.509 L2.828,55.396 L1.797,57.429 L1.029,59.575 L0.535,61.8 L0.325,64.07 L0.401,66.348 L0.761,68.6 L1.401,70.787 L2.309,72.877 L3.473,74.837 L4.873,76.635 L6.488,78.245 L8.292,79.638 L10.255,80.795 L12.349,81.696 L14.539,82.329 L16.791,82.682 L19.069,82.749 L21.337,82.529 L23.561,82.029 L25.705,81.253 L27.734,80.215 L29.617,78.93 L31.324,77.42 L32.828,75.708 L33.907,74.101 L34.519,72.68 L35.282,71.385 L36.251,70.122 L37.342,69.026 L38.564,68.076 L39.894,67.286 L41.313,66.669 L42.798,66.235 L44.326,65.99 L45.872,65.939 L47.413,66.082 L48.924,66.417 L50.38,66.938 L51.76,67.638 L53.041,68.505 L54.204,69.527 L55.229,70.686 L56.101,71.964 L56.806,73.341 L57.403,74.715 L58.557,76.659 L59.946,78.443 L61.546,80.038 L63.336,81.42 L65.283,82.567 L67.359,83.462 L69.531,84.088 L71.764,84.438 L74.024,84.505 L76.274,84.289 L78.479,83.792 L80.604,83.022 L82.616,81.993 L84.484,80.719 L86.176,79.221 L87.668,77.523 L88.936,75.651 L89.959,73.635 L90.721,71.508 L91.211,69.3 L91.419,67.05 L91.345,64.79 L90.986,62.558 L90.352,60.388 L89.451,58.316 L88.297,56.372 L86.909,54.588 L85.306,52.992 L83.518,51.611 L81.571,50.463 L79.495,49.569 L77.322,48.942 L75.09,48.592 L72.83,48.525 L72.396,48.545 Z M62.559,64.812 L62.857,63.464 L63.323,62.164 L63.948,60.932 L64.722,59.787 L65.634,58.749 L66.669,57.834 L67.809,57.056 L69.04,56.426 L70.339,55.957 L71.686,55.653 L73.061,55.52 L74.441,55.56 L75.806,55.775 L77.134,56.158 L78.403,56.705 L79.593,57.405 L80.686,58.251 L81.665,59.226 L82.513,60.316 L83.218,61.503 L83.769,62.769 L84.157,64.096 L84.376,65.46 L84.421,66.84 L84.293,68.216 L83.993,69.565 L83.528,70.865 L82.904,72.097 L82.129,73.241 L81.218,74.279 L80.183,75.194 L79.042,75.974 L77.812,76.602 L76.513,77.072 L75.165,77.376 L73.79,77.508 L72.41,77.468 L71.045,77.254 L69.718,76.87 L68.449,76.324 L67.259,75.624 L66.166,74.778 L65.187,73.803 L64.339,72.713 L63.633,71.525 L63.083,70.259 L62.695,68.933 L62.476,67.569 L62.431,66.189 L62.559,64.812 Z M42.787,60.05 L41.517,59.504 L40.328,58.803 L39.235,57.959 L38.257,56.983 L37.409,55.893 L36.703,54.705 L36.153,53.439 L35.763,52.112 L35.546,50.748 L35.5,49.368 L35.628,47.993 L35.927,46.643 L36.392,45.343 L37.018,44.111 L37.792,42.967 L38.703,41.93 L39.738,41.014 L40.879,40.235 L42.109,39.606 L43.409,39.136 L44.755,38.833 L46.13,38.7 L47.512,38.74 L48.876,38.954 L50.204,39.338 L51.472,39.884 L52.662,40.584 L53.755,41.43 L54.734,42.405 L55.582,43.495 L56.287,44.683 L56.838,45.949 L57.227,47.276 L57.445,48.64 L57.49,50.02 L57.363,51.396 L57.063,52.745 L56.598,54.045 L55.973,55.276 L55.198,56.421 L54.288,57.459 L53.253,58.374 L52.11,59.153 L50.881,59.783 L49.581,60.251 L48.235,60.555 L46.86,60.688 L45.48,60.648 L44.115,60.434 L42.787,60.05 M7.47,64.97 L7.511,63.59 L7.726,62.225 L8.108,60.898 L8.655,59.629 L9.356,58.439 L10.201,57.346 L11.177,56.368 L12.267,55.519 L13.455,54.814 L14.721,54.264 L16.046,53.875 L17.41,53.657 L18.79,53.611 L20.166,53.739 L21.515,54.038 L22.815,54.503 L24.048,55.129 L25.192,55.903 L26.229,56.814 L27.146,57.848 L27.924,58.99 L28.553,60.22 L29.023,61.52 L29.326,62.866 L29.459,64.241 L29.419,65.623 L29.205,66.987 L28.821,68.315 L28.275,69.583 L27.575,70.773 L26.729,71.867 L25.754,72.845 L24.664,73.693 L23.476,74.398 L22.209,74.949 L20.884,75.337 L19.519,75.556 L18.139,75.602 L16.763,75.474 L15.414,75.174 L14.114,74.709 L12.882,74.084 L11.738,73.31 L10.7,72.4 L9.786,71.364 L9.006,70.224 L8.378,68.993 L7.907,67.694 L7.603,66.347 L7.471,64.972 M57.699,22.316 L57.074,23.547 L56.3,24.691 L55.388,25.729 L54.353,26.644 L53.212,27.424 L51.982,28.052 L50.683,28.522 L49.336,28.826 L47.961,28.958 L46.581,28.918 L45.215,28.704 L43.888,28.32 L42.62,27.774 L41.43,27.074 L40.336,26.228 L39.357,25.253 L38.509,24.163 L37.804,22.975 L37.253,21.709 L36.865,20.382 L36.646,19.019 L36.601,17.639 L36.729,16.262 L37.027,14.914 L37.494,13.614 L38.118,12.382 L38.892,11.237 L39.804,10.199 L40.839,9.284 L41.979,8.506 L43.21,7.876 L44.51,7.407 L45.856,7.103 L47.231,6.97 L48.611,7.011 L49.977,7.224 L51.304,7.608 L52.573,8.154 L53.763,8.855 L54.856,9.7 L55.835,10.675 L56.683,11.765 L57.388,12.953 L57.939,14.219 L58.327,15.546 L58.546,16.91 L58.591,18.29 L58.463,19.666 L58.165,21.014 L57.698,22.314" id="Shape" sketch:type="MSShapeGroup"></path>
        </g>
    </g>
</svg>