<?xml version="1.0" encoding="UTF-8" standalone="no"?>
<svg width="93px" height="87px" viewBox="0 0 93 87" version="1.1" xmlns="http://www.w3.org/2000/svg" xmlns:xlink="http://www.w3.org/1999/xlink" xmlns:sketch="http://www.bohemiancoding.com/sketch/ns">
    <title>Slice 1</title>
    <description>Created with Sketch (http://www.bohemiancoding.com/sketch)</description>
    <defs></defs>
    <g id="Page-1" stroke="none" stroke-width="1" fill="none" fill-rule="evenodd" sketch:type="MSPage">
        <g id="rotate" sketch:type="MSLayerGroup" transform="translate(2.000000, 2.000000)" stroke="#FFE98F" stroke-width="4" fill="#FFE98F">
            <g id="Group" transform="translate(0.000000, -0.362180)" sketch:type="MSShapeGroup">
                <path d="M88.020284,41.362 C88.020284,63.9622 69.618584,82.3441 46.989084,82.362 C45.9071763,82.3773009 44.9008399,81.8088741 44.3554208,80.8743815 C43.8100018,79.9398888 43.8100018,78.7841112 44.3554208,77.8496185 C44.9008399,76.9151259 45.9071763,76.3466991 46.989084,76.362 C66.383784,76.347 82.020284,60.715 82.020284,41.362 C82.020284,21.99953 66.365684,6.36203 46.957784,6.36203 C32.155784,6.36203 19.528184,15.47183 14.364084,28.36203 L20.520284,24.76823 C21.4502774,24.1638884 22.6378095,24.1218949 23.6081681,24.6590363 C24.5785266,25.1961776 25.1734066,26.2248242 25.1550065,27.3337778 C25.1366065,28.4427313 24.5079283,29.4510763 23.520284,29.95573 L11.520284,36.95573 C10.8151057,37.365126 9.97367176,37.4698727 9.18964329,37.2458619 C8.40561482,37.021851 7.74653098,36.4883798 7.364084,35.76823 L0.3640839,22.76823 C-0.163972181,21.8280513 -0.146881694,20.6768129 0.408850023,19.7527233 C0.96458174,18.8286337 1.97346743,18.2738441 3.0514839,18.29953 C4.15941911,18.3149203 5.16867825,18.9396998 5.676484,19.92453 L8.895284,25.89323 C15.018684,10.90323 29.779584,0.36203 46.957784,0.36203 C69.602284,0.36203 88.020284,18.75083 88.020284,41.362 Z" id="Shape"></path>
            </g>
        </g>
    </g>
</svg>