<?xml version="1.0" encoding="UTF-8" standalone="no"?>
<svg width="94px" height="45px" viewBox="0 0 94 45" version="1.1" xmlns="http://www.w3.org/2000/svg" xmlns:xlink="http://www.w3.org/1999/xlink" xmlns:sketch="http://www.bohemiancoding.com/sketch/ns">
    <title>Slice 1</title>
    <description>Created with Sketch (http://www.bohemiancoding.com/sketch)</description>
    <defs></defs>
    <g id="Page-1" stroke="none" stroke-width="1" fill="none" fill-rule="evenodd" sketch:type="MSPage">
        <g id="speed_icon" sketch:type="MSLayerGroup" transform="translate(0.000000, -8.000000)" fill="#000000">
            <path d="M12.598,24.087 C12.025,24.087 11.456,24.332 11.054,24.807 C5.014,31.922 1.11,40.901 0.317,50.761 C0.227,51.888 1.144,52.843 2.275,52.854 L16.105,52.958 L16.119,52.958 C17.093,52.958 18.005,52.175 18.1,51.206 C18.636,45.638 20.694,40.738 24.035,36.64 C24.679,35.851 24.576,34.693 23.839,33.993 L13.943,24.625 C13.562,24.262 13.079,24.087 12.598,24.087 Z M43.0512847,8.21310325 C33.749295,8.97324304 24.6396384,12.56181 17.1068298,18.9731471 C16.2462809,19.7064169 16.2194108,21.0301208 17.0113704,21.8376367 L26.7171181,31.6904626 C27.4157396,32.3890841 28.6142856,32.4803009 29.3666472,31.8622895 C33.682827,28.3041282 38.602876,26.2945307 43.8630433,25.7592509 C44.8763273,25.6567204 45.622325,24.7650588 45.596162,23.7489463 L45.2228097,10.1272413 C45.2100817,9.60115386 44.9922929,9.1358776 44.6521745,8.79575923 C44.2470023,8.39058705 43.6714174,8.16148445 43.0512847,8.21310325 Z M77.5182769,20.0519437 C70.6184041,13.7673132 61.7811215,9.55232882 51.9548033,8.41570286 C50.8316308,8.28642595 49.8452097,9.16953832 49.7947451,10.2994655 L49.2081484,24.117411 C49.1736677,25.1048092 49.9243624,26.0435799 50.8894566,26.1723397 C56.4353586,26.9023335 61.2605505,29.1300874 65.2394549,32.6120703 C66.005499,33.2832137 67.1663882,33.22069 67.8916827,32.5085687 L77.5993414,22.9455355 C77.975417,22.5774361 78.1671668,22.1008378 78.1839535,21.6201308 C78.2039509,21.0474798 77.978958,20.4702761 77.5182769,20.0519437 Z" id="Shape" sketch:type="MSShapeGroup"></path>
            <path d="M80.061,24.622 L70.198,33.975 C69.464,34.672 69.361,35.824 70,36.609 C73.345,40.718 75.375,45.642 75.903,51.225 C75.996,52.218 76.862,52.957 77.856,52.957 C77.862,52.957 91.729,52.853 91.729,52.853 C92.856,52.842 93.773,51.891 93.681,50.768 C92.89,40.904 88.985,31.921 82.944,24.804 C82.542,24.33 81.974,24.083 81.405,24.083 C80.924,24.083 80.441,24.26 80.061,24.622 Z" id="Shape" sketch:type="MSShapeGroup"></path>
            <path d="M47.8827982,29.5242144 L46.4000061,29.5242144 C45.5936118,29.5242144 44.9394593,30.1762815 44.9394593,30.9826757 L41.6367188,49.9968955 C41.6367188,50.8032898 42.2901761,51.456052 43.0965704,51.456052 L46.9151251,51.6792007 C47.0625006,51.6889331 47.2098761,51.6889331 47.3565564,51.6792007 L51.1834532,51.4574423 C51.9891523,51.4574423 52.644,50.8039849 52.644,49.9982859 L49.3440402,30.984066 C49.343345,30.1776718 48.6891924,29.5242144 47.8827982,29.5242144 L47.8827982,29.5242144 Z" id="Shape" sketch:type="MSShapeGroup"></path>
        </g>
    </g>
</svg>